<mxfile host="app.diagrams.net" modified="2020-12-14T04:03:41.455Z" agent="5.0 (Windows NT 10.0; Win64; x64) AppleWebKit/537.36 (KHTML, like Gecko) Chrome/87.0.4280.88 Safari/537.36" etag="SPec9n81TKh4sHjlLaOH" version="13.6.9" type="github">
  <diagram id="C5RBs43oDa-KdzZeNtuy" name="Page-1">
    <mxGraphModel dx="886" dy="717" grid="1" gridSize="10" guides="1" tooltips="1" connect="1" arrows="1" fold="1" page="1" pageScale="1" pageWidth="827" pageHeight="1169" math="0" shadow="0">
      <root>
        <mxCell id="WIyWlLk6GJQsqaUBKTNV-0" />
        <mxCell id="WIyWlLk6GJQsqaUBKTNV-1" parent="WIyWlLk6GJQsqaUBKTNV-0" />
        <mxCell id="w7deWJEiPZsFdYaoHRrN-9" style="edgeStyle=orthogonalEdgeStyle;rounded=0;orthogonalLoop=1;jettySize=auto;html=1;exitX=0.5;exitY=1;exitDx=0;exitDy=0;entryX=0.5;entryY=0;entryDx=0;entryDy=0;" edge="1" parent="WIyWlLk6GJQsqaUBKTNV-1" source="WIyWlLk6GJQsqaUBKTNV-3" target="w7deWJEiPZsFdYaoHRrN-8">
          <mxGeometry relative="1" as="geometry" />
        </mxCell>
        <mxCell id="WIyWlLk6GJQsqaUBKTNV-3" value="新手引导开始" style="rounded=1;whiteSpace=wrap;html=1;fontSize=12;glass=0;strokeWidth=1;shadow=0;" parent="WIyWlLk6GJQsqaUBKTNV-1" vertex="1">
          <mxGeometry x="160" y="10" width="120" height="40" as="geometry" />
        </mxCell>
        <mxCell id="w7deWJEiPZsFdYaoHRrN-16" style="edgeStyle=orthogonalEdgeStyle;rounded=0;orthogonalLoop=1;jettySize=auto;html=1;exitX=0.5;exitY=1;exitDx=0;exitDy=0;entryX=0.5;entryY=0;entryDx=0;entryDy=0;" edge="1" parent="WIyWlLk6GJQsqaUBKTNV-1" source="w7deWJEiPZsFdYaoHRrN-1" target="w7deWJEiPZsFdYaoHRrN-15">
          <mxGeometry relative="1" as="geometry" />
        </mxCell>
        <mxCell id="w7deWJEiPZsFdYaoHRrN-1" value="Step1:认领一个基地" style="rounded=0;whiteSpace=wrap;html=1;" vertex="1" parent="WIyWlLk6GJQsqaUBKTNV-1">
          <mxGeometry x="160" y="230" width="120" height="40" as="geometry" />
        </mxCell>
        <mxCell id="w7deWJEiPZsFdYaoHRrN-10" style="edgeStyle=orthogonalEdgeStyle;rounded=0;orthogonalLoop=1;jettySize=auto;html=1;exitX=0.5;exitY=1;exitDx=0;exitDy=0;entryX=0.5;entryY=0;entryDx=0;entryDy=0;" edge="1" parent="WIyWlLk6GJQsqaUBKTNV-1" source="w7deWJEiPZsFdYaoHRrN-8" target="w7deWJEiPZsFdYaoHRrN-1">
          <mxGeometry relative="1" as="geometry" />
        </mxCell>
        <mxCell id="w7deWJEiPZsFdYaoHRrN-14" value="是" style="edgeLabel;html=1;align=center;verticalAlign=middle;resizable=0;points=[];" vertex="1" connectable="0" parent="w7deWJEiPZsFdYaoHRrN-10">
          <mxGeometry x="0.7" y="5" relative="1" as="geometry">
            <mxPoint as="offset" />
          </mxGeometry>
        </mxCell>
        <mxCell id="w7deWJEiPZsFdYaoHRrN-8" value="读取长期存储PlayerGuide" style="rounded=0;whiteSpace=wrap;html=1;" vertex="1" parent="WIyWlLk6GJQsqaUBKTNV-1">
          <mxGeometry x="160" y="70" width="120" height="40" as="geometry" />
        </mxCell>
        <mxCell id="w7deWJEiPZsFdYaoHRrN-43" value="否" style="edgeStyle=orthogonalEdgeStyle;rounded=0;orthogonalLoop=1;jettySize=auto;html=1;exitX=1;exitY=0.5;exitDx=0;exitDy=0;entryX=0;entryY=0.5;entryDx=0;entryDy=0;" edge="1" parent="WIyWlLk6GJQsqaUBKTNV-1" source="w7deWJEiPZsFdYaoHRrN-11" target="w7deWJEiPZsFdYaoHRrN-42">
          <mxGeometry relative="1" as="geometry" />
        </mxCell>
        <mxCell id="w7deWJEiPZsFdYaoHRrN-11" value="是否为新手：PlayerGuide0？" style="rhombus;whiteSpace=wrap;html=1;shadow=0;fontFamily=Helvetica;fontSize=12;align=center;strokeWidth=1;spacing=6;spacingTop=-4;" vertex="1" parent="WIyWlLk6GJQsqaUBKTNV-1">
          <mxGeometry x="155" y="130" width="130" height="70" as="geometry" />
        </mxCell>
        <mxCell id="w7deWJEiPZsFdYaoHRrN-13" style="edgeStyle=orthogonalEdgeStyle;rounded=0;orthogonalLoop=1;jettySize=auto;html=1;exitX=0.5;exitY=1;exitDx=0;exitDy=0;" edge="1" parent="WIyWlLk6GJQsqaUBKTNV-1">
          <mxGeometry relative="1" as="geometry">
            <mxPoint x="200" y="220" as="sourcePoint" />
            <mxPoint x="200" y="220" as="targetPoint" />
          </mxGeometry>
        </mxCell>
        <mxCell id="w7deWJEiPZsFdYaoHRrN-18" value="是" style="edgeStyle=orthogonalEdgeStyle;rounded=0;orthogonalLoop=1;jettySize=auto;html=1;exitX=0.5;exitY=1;exitDx=0;exitDy=0;entryX=0.5;entryY=0;entryDx=0;entryDy=0;" edge="1" parent="WIyWlLk6GJQsqaUBKTNV-1" source="w7deWJEiPZsFdYaoHRrN-15" target="w7deWJEiPZsFdYaoHRrN-17">
          <mxGeometry relative="1" as="geometry" />
        </mxCell>
        <mxCell id="w7deWJEiPZsFdYaoHRrN-15" value="是否认领？" style="rhombus;whiteSpace=wrap;html=1;shadow=0;fontFamily=Helvetica;fontSize=12;align=center;strokeWidth=1;spacing=6;spacingTop=-4;" vertex="1" parent="WIyWlLk6GJQsqaUBKTNV-1">
          <mxGeometry x="155" y="290" width="130" height="70" as="geometry" />
        </mxCell>
        <mxCell id="w7deWJEiPZsFdYaoHRrN-20" style="edgeStyle=orthogonalEdgeStyle;rounded=0;orthogonalLoop=1;jettySize=auto;html=1;exitX=0.5;exitY=1;exitDx=0;exitDy=0;entryX=0.5;entryY=0;entryDx=0;entryDy=0;" edge="1" parent="WIyWlLk6GJQsqaUBKTNV-1" source="w7deWJEiPZsFdYaoHRrN-17" target="w7deWJEiPZsFdYaoHRrN-19">
          <mxGeometry relative="1" as="geometry" />
        </mxCell>
        <mxCell id="w7deWJEiPZsFdYaoHRrN-17" value="PlayerGuide = 1" style="rounded=0;whiteSpace=wrap;html=1;" vertex="1" parent="WIyWlLk6GJQsqaUBKTNV-1">
          <mxGeometry x="160" y="390" width="120" height="40" as="geometry" />
        </mxCell>
        <mxCell id="w7deWJEiPZsFdYaoHRrN-22" style="edgeStyle=orthogonalEdgeStyle;rounded=0;orthogonalLoop=1;jettySize=auto;html=1;exitX=0.5;exitY=1;exitDx=0;exitDy=0;entryX=0.5;entryY=0;entryDx=0;entryDy=0;" edge="1" parent="WIyWlLk6GJQsqaUBKTNV-1" source="w7deWJEiPZsFdYaoHRrN-19" target="w7deWJEiPZsFdYaoHRrN-21">
          <mxGeometry relative="1" as="geometry" />
        </mxCell>
        <mxCell id="w7deWJEiPZsFdYaoHRrN-19" value="Step2:采集" style="rounded=0;whiteSpace=wrap;html=1;" vertex="1" parent="WIyWlLk6GJQsqaUBKTNV-1">
          <mxGeometry x="160" y="450" width="120" height="50" as="geometry" />
        </mxCell>
        <mxCell id="w7deWJEiPZsFdYaoHRrN-26" value="是" style="edgeStyle=orthogonalEdgeStyle;rounded=0;orthogonalLoop=1;jettySize=auto;html=1;exitX=0.5;exitY=1;exitDx=0;exitDy=0;entryX=0.5;entryY=0;entryDx=0;entryDy=0;" edge="1" parent="WIyWlLk6GJQsqaUBKTNV-1" source="w7deWJEiPZsFdYaoHRrN-21" target="w7deWJEiPZsFdYaoHRrN-24">
          <mxGeometry relative="1" as="geometry" />
        </mxCell>
        <mxCell id="w7deWJEiPZsFdYaoHRrN-21" value="是否采集成功？" style="rhombus;whiteSpace=wrap;html=1;shadow=0;fontFamily=Helvetica;fontSize=12;align=center;strokeWidth=1;spacing=6;spacingTop=-4;" vertex="1" parent="WIyWlLk6GJQsqaUBKTNV-1">
          <mxGeometry x="155" y="519.5" width="130" height="70" as="geometry" />
        </mxCell>
        <mxCell id="w7deWJEiPZsFdYaoHRrN-63" style="edgeStyle=orthogonalEdgeStyle;rounded=0;orthogonalLoop=1;jettySize=auto;html=1;exitX=0.5;exitY=1;exitDx=0;exitDy=0;entryX=0.5;entryY=0;entryDx=0;entryDy=0;" edge="1" parent="WIyWlLk6GJQsqaUBKTNV-1" source="w7deWJEiPZsFdYaoHRrN-24" target="w7deWJEiPZsFdYaoHRrN-53">
          <mxGeometry relative="1" as="geometry" />
        </mxCell>
        <mxCell id="w7deWJEiPZsFdYaoHRrN-24" value="PlayerGuide = 2" style="rounded=0;whiteSpace=wrap;html=1;" vertex="1" parent="WIyWlLk6GJQsqaUBKTNV-1">
          <mxGeometry x="160" y="610" width="120" height="40" as="geometry" />
        </mxCell>
        <mxCell id="w7deWJEiPZsFdYaoHRrN-64" style="edgeStyle=orthogonalEdgeStyle;rounded=0;orthogonalLoop=1;jettySize=auto;html=1;exitX=0.5;exitY=1;exitDx=0;exitDy=0;" edge="1" parent="WIyWlLk6GJQsqaUBKTNV-1" source="w7deWJEiPZsFdYaoHRrN-25" target="w7deWJEiPZsFdYaoHRrN-28">
          <mxGeometry relative="1" as="geometry" />
        </mxCell>
        <mxCell id="w7deWJEiPZsFdYaoHRrN-25" value="Step3:注油" style="rounded=0;whiteSpace=wrap;html=1;" vertex="1" parent="WIyWlLk6GJQsqaUBKTNV-1">
          <mxGeometry x="160" y="740" width="120" height="40" as="geometry" />
        </mxCell>
        <mxCell id="w7deWJEiPZsFdYaoHRrN-59" value="是" style="edgeStyle=orthogonalEdgeStyle;rounded=0;orthogonalLoop=1;jettySize=auto;html=1;exitX=0.5;exitY=1;exitDx=0;exitDy=0;" edge="1" parent="WIyWlLk6GJQsqaUBKTNV-1" source="w7deWJEiPZsFdYaoHRrN-28">
          <mxGeometry relative="1" as="geometry">
            <mxPoint x="220" y="860" as="targetPoint" />
          </mxGeometry>
        </mxCell>
        <mxCell id="w7deWJEiPZsFdYaoHRrN-28" value="是否注油成功？" style="rhombus;whiteSpace=wrap;html=1;shadow=0;fontFamily=Helvetica;fontSize=12;align=center;strokeWidth=1;spacing=6;spacingTop=-4;" vertex="1" parent="WIyWlLk6GJQsqaUBKTNV-1">
          <mxGeometry x="155" y="800" width="130" height="39.5" as="geometry" />
        </mxCell>
        <mxCell id="w7deWJEiPZsFdYaoHRrN-33" style="edgeStyle=orthogonalEdgeStyle;rounded=0;orthogonalLoop=1;jettySize=auto;html=1;exitX=0.5;exitY=1;exitDx=0;exitDy=0;entryX=0.5;entryY=0;entryDx=0;entryDy=0;" edge="1" parent="WIyWlLk6GJQsqaUBKTNV-1" source="w7deWJEiPZsFdYaoHRrN-29" target="w7deWJEiPZsFdYaoHRrN-32">
          <mxGeometry relative="1" as="geometry" />
        </mxCell>
        <mxCell id="w7deWJEiPZsFdYaoHRrN-29" value="PlayerGuide = 3" style="rounded=0;whiteSpace=wrap;html=1;" vertex="1" parent="WIyWlLk6GJQsqaUBKTNV-1">
          <mxGeometry x="160" y="860.5" width="120" height="40" as="geometry" />
        </mxCell>
        <mxCell id="w7deWJEiPZsFdYaoHRrN-35" style="edgeStyle=orthogonalEdgeStyle;rounded=0;orthogonalLoop=1;jettySize=auto;html=1;exitX=0.5;exitY=1;exitDx=0;exitDy=0;entryX=0.5;entryY=0;entryDx=0;entryDy=0;" edge="1" parent="WIyWlLk6GJQsqaUBKTNV-1" source="w7deWJEiPZsFdYaoHRrN-32" target="w7deWJEiPZsFdYaoHRrN-34">
          <mxGeometry relative="1" as="geometry" />
        </mxCell>
        <mxCell id="w7deWJEiPZsFdYaoHRrN-32" value="Step4:赠送无人机，引导装备" style="rounded=0;whiteSpace=wrap;html=1;" vertex="1" parent="WIyWlLk6GJQsqaUBKTNV-1">
          <mxGeometry x="160" y="920" width="120" height="40" as="geometry" />
        </mxCell>
        <mxCell id="w7deWJEiPZsFdYaoHRrN-76" style="edgeStyle=orthogonalEdgeStyle;rounded=0;orthogonalLoop=1;jettySize=auto;html=1;exitX=1;exitY=0.5;exitDx=0;exitDy=0;entryX=0;entryY=0.5;entryDx=0;entryDy=0;" edge="1" parent="WIyWlLk6GJQsqaUBKTNV-1" source="w7deWJEiPZsFdYaoHRrN-34" target="w7deWJEiPZsFdYaoHRrN-37">
          <mxGeometry relative="1" as="geometry" />
        </mxCell>
        <mxCell id="w7deWJEiPZsFdYaoHRrN-34" value="获得无人机*1" style="rounded=0;whiteSpace=wrap;html=1;" vertex="1" parent="WIyWlLk6GJQsqaUBKTNV-1">
          <mxGeometry x="160" y="980" width="120" height="40" as="geometry" />
        </mxCell>
        <mxCell id="w7deWJEiPZsFdYaoHRrN-77" style="edgeStyle=orthogonalEdgeStyle;rounded=0;orthogonalLoop=1;jettySize=auto;html=1;exitX=1;exitY=0.5;exitDx=0;exitDy=0;entryX=0;entryY=0.5;entryDx=0;entryDy=0;" edge="1" parent="WIyWlLk6GJQsqaUBKTNV-1" source="w7deWJEiPZsFdYaoHRrN-37" target="w7deWJEiPZsFdYaoHRrN-39">
          <mxGeometry relative="1" as="geometry" />
        </mxCell>
        <mxCell id="w7deWJEiPZsFdYaoHRrN-37" value="&lt;span style=&quot;font-family: &amp;#34;helvetica&amp;#34;&quot;&gt;手机按钮→无人机按钮→新无人机→装备键依次闪烁&lt;/span&gt;" style="rounded=0;whiteSpace=wrap;html=1;" vertex="1" parent="WIyWlLk6GJQsqaUBKTNV-1">
          <mxGeometry x="329" y="975" width="141" height="50" as="geometry" />
        </mxCell>
        <mxCell id="w7deWJEiPZsFdYaoHRrN-75" style="edgeStyle=orthogonalEdgeStyle;rounded=0;orthogonalLoop=1;jettySize=auto;html=1;exitX=0.5;exitY=1;exitDx=0;exitDy=0;entryX=0.5;entryY=0;entryDx=0;entryDy=0;" edge="1" parent="WIyWlLk6GJQsqaUBKTNV-1" source="w7deWJEiPZsFdYaoHRrN-39" target="w7deWJEiPZsFdYaoHRrN-74">
          <mxGeometry relative="1" as="geometry" />
        </mxCell>
        <mxCell id="w7deWJEiPZsFdYaoHRrN-39" value="PlayerGuide = 4" style="rounded=0;whiteSpace=wrap;html=1;" vertex="1" parent="WIyWlLk6GJQsqaUBKTNV-1">
          <mxGeometry x="510" y="980" width="120" height="40" as="geometry" />
        </mxCell>
        <mxCell id="w7deWJEiPZsFdYaoHRrN-42" value="跳转相应步骤" style="rounded=0;whiteSpace=wrap;html=1;" vertex="1" parent="WIyWlLk6GJQsqaUBKTNV-1">
          <mxGeometry x="370" y="145" width="120" height="40" as="geometry" />
        </mxCell>
        <mxCell id="w7deWJEiPZsFdYaoHRrN-47" value="无人占领的基地Cube，显示特效光柱（本地），文字提示" style="shape=process;whiteSpace=wrap;html=1;backgroundOutline=1;" vertex="1" parent="WIyWlLk6GJQsqaUBKTNV-1">
          <mxGeometry x="330" y="220" width="170" height="60" as="geometry" />
        </mxCell>
        <mxCell id="w7deWJEiPZsFdYaoHRrN-48" value="" style="endArrow=none;dashed=1;html=1;dashPattern=1 3;strokeWidth=2;exitX=1;exitY=0.5;exitDx=0;exitDy=0;entryX=0;entryY=0.5;entryDx=0;entryDy=0;" edge="1" parent="WIyWlLk6GJQsqaUBKTNV-1" source="w7deWJEiPZsFdYaoHRrN-1" target="w7deWJEiPZsFdYaoHRrN-47">
          <mxGeometry width="50" height="50" relative="1" as="geometry">
            <mxPoint x="410" y="440" as="sourcePoint" />
            <mxPoint x="460" y="390" as="targetPoint" />
          </mxGeometry>
        </mxCell>
        <mxCell id="w7deWJEiPZsFdYaoHRrN-49" value="无人机开启按键闪烁，引导去中心位置采矿，显示特效光柱（本地），文字提示" style="shape=process;whiteSpace=wrap;html=1;backgroundOutline=1;" vertex="1" parent="WIyWlLk6GJQsqaUBKTNV-1">
          <mxGeometry x="330" y="445" width="170" height="60" as="geometry" />
        </mxCell>
        <mxCell id="w7deWJEiPZsFdYaoHRrN-50" value="" style="endArrow=none;dashed=1;html=1;dashPattern=1 3;strokeWidth=2;exitX=1;exitY=0.5;exitDx=0;exitDy=0;entryX=0;entryY=0.5;entryDx=0;entryDy=0;" edge="1" parent="WIyWlLk6GJQsqaUBKTNV-1" source="w7deWJEiPZsFdYaoHRrN-19" target="w7deWJEiPZsFdYaoHRrN-49">
          <mxGeometry width="50" height="50" relative="1" as="geometry">
            <mxPoint x="290" y="260" as="sourcePoint" />
            <mxPoint x="340" y="260" as="targetPoint" />
          </mxGeometry>
        </mxCell>
        <mxCell id="w7deWJEiPZsFdYaoHRrN-51" value="个人基地注油地点闪烁特效，显示特效光柱（本地），文字提示" style="shape=process;whiteSpace=wrap;html=1;backgroundOutline=1;" vertex="1" parent="WIyWlLk6GJQsqaUBKTNV-1">
          <mxGeometry x="329" y="730.5" width="170" height="60" as="geometry" />
        </mxCell>
        <mxCell id="w7deWJEiPZsFdYaoHRrN-52" value="" style="endArrow=none;dashed=1;html=1;dashPattern=1 3;strokeWidth=2;exitX=1;exitY=0.5;exitDx=0;exitDy=0;entryX=0;entryY=0.5;entryDx=0;entryDy=0;" edge="1" parent="WIyWlLk6GJQsqaUBKTNV-1" source="w7deWJEiPZsFdYaoHRrN-25" target="w7deWJEiPZsFdYaoHRrN-51">
          <mxGeometry width="50" height="50" relative="1" as="geometry">
            <mxPoint x="290" y="485" as="sourcePoint" />
            <mxPoint x="340" y="485" as="targetPoint" />
          </mxGeometry>
        </mxCell>
        <mxCell id="w7deWJEiPZsFdYaoHRrN-62" value="是" style="edgeStyle=orthogonalEdgeStyle;rounded=0;orthogonalLoop=1;jettySize=auto;html=1;exitX=0.5;exitY=1;exitDx=0;exitDy=0;entryX=0.5;entryY=0;entryDx=0;entryDy=0;" edge="1" parent="WIyWlLk6GJQsqaUBKTNV-1" source="w7deWJEiPZsFdYaoHRrN-53" target="w7deWJEiPZsFdYaoHRrN-25">
          <mxGeometry relative="1" as="geometry" />
        </mxCell>
        <mxCell id="w7deWJEiPZsFdYaoHRrN-66" value="否" style="edgeStyle=orthogonalEdgeStyle;rounded=0;orthogonalLoop=1;jettySize=auto;html=1;exitX=1;exitY=0.5;exitDx=0;exitDy=0;entryX=0;entryY=0.5;entryDx=0;entryDy=0;" edge="1" parent="WIyWlLk6GJQsqaUBKTNV-1" source="w7deWJEiPZsFdYaoHRrN-53" target="w7deWJEiPZsFdYaoHRrN-65">
          <mxGeometry relative="1" as="geometry" />
        </mxCell>
        <mxCell id="w7deWJEiPZsFdYaoHRrN-53" value="是否拥有个人基地？" style="rhombus;whiteSpace=wrap;html=1;shadow=0;fontFamily=Helvetica;fontSize=12;align=center;strokeWidth=1;spacing=6;spacingTop=-4;" vertex="1" parent="WIyWlLk6GJQsqaUBKTNV-1">
          <mxGeometry x="155" y="670" width="130" height="50" as="geometry" />
        </mxCell>
        <mxCell id="w7deWJEiPZsFdYaoHRrN-69" style="edgeStyle=orthogonalEdgeStyle;rounded=0;orthogonalLoop=1;jettySize=auto;html=1;exitX=1;exitY=0.5;exitDx=0;exitDy=0;entryX=0;entryY=0.5;entryDx=0;entryDy=0;" edge="1" parent="WIyWlLk6GJQsqaUBKTNV-1" source="w7deWJEiPZsFdYaoHRrN-65" target="w7deWJEiPZsFdYaoHRrN-68">
          <mxGeometry relative="1" as="geometry" />
        </mxCell>
        <mxCell id="w7deWJEiPZsFdYaoHRrN-65" value="无人占领的基地Cube，显示特效光柱（本地），文字提示" style="rounded=0;whiteSpace=wrap;html=1;" vertex="1" parent="WIyWlLk6GJQsqaUBKTNV-1">
          <mxGeometry x="329" y="670" width="171" height="40" as="geometry" />
        </mxCell>
        <mxCell id="w7deWJEiPZsFdYaoHRrN-70" style="edgeStyle=orthogonalEdgeStyle;rounded=0;orthogonalLoop=1;jettySize=auto;html=1;exitX=0.5;exitY=1;exitDx=0;exitDy=0;" edge="1" parent="WIyWlLk6GJQsqaUBKTNV-1" source="w7deWJEiPZsFdYaoHRrN-68">
          <mxGeometry relative="1" as="geometry">
            <mxPoint x="280" y="760" as="targetPoint" />
            <Array as="points">
              <mxPoint x="605" y="810" />
              <mxPoint x="290" y="810" />
              <mxPoint x="290" y="760" />
            </Array>
          </mxGeometry>
        </mxCell>
        <mxCell id="w7deWJEiPZsFdYaoHRrN-71" value="是" style="edgeLabel;html=1;align=center;verticalAlign=middle;resizable=0;points=[];" vertex="1" connectable="0" parent="w7deWJEiPZsFdYaoHRrN-70">
          <mxGeometry x="-0.2267" y="-2" relative="1" as="geometry">
            <mxPoint as="offset" />
          </mxGeometry>
        </mxCell>
        <mxCell id="w7deWJEiPZsFdYaoHRrN-68" value="是否拥有个人基地？" style="rhombus;whiteSpace=wrap;html=1;shadow=0;fontFamily=Helvetica;fontSize=12;align=center;strokeWidth=1;spacing=6;spacingTop=-4;" vertex="1" parent="WIyWlLk6GJQsqaUBKTNV-1">
          <mxGeometry x="540" y="665" width="130" height="50" as="geometry" />
        </mxCell>
        <mxCell id="w7deWJEiPZsFdYaoHRrN-74" value="新手引导结束" style="rounded=1;whiteSpace=wrap;html=1;fontSize=12;glass=0;strokeWidth=1;shadow=0;" vertex="1" parent="WIyWlLk6GJQsqaUBKTNV-1">
          <mxGeometry x="510" y="1050" width="120" height="40" as="geometry" />
        </mxCell>
      </root>
    </mxGraphModel>
  </diagram>
</mxfile>
